<svg width="200" height="200" viewBox="0 0 200 200" fill="none" xmlns="http://www.w3.org/2000/svg">
  <circle cx="100" cy="100" r="90" fill="#4CAF50"/> 

  <path d="M190 10C190 59.7056 149.706 100 100 100L10 10C10 59.7056 50.2944 100 100 100C149.706 100 190 59.7056 190 10Z" fill="rgba(0,0,0,0.1)" transform="translate(0 0) rotate(45 100 100)"/>

  <rect x="70" y="80" width="60" height="70" rx="5" fill="#EF5350"/> <rect x="75" y="85" width="50" height="60" rx="3" fill="#FFFFFF"/> <line x1="77" y1="90" x2="123" y2="90" stroke="#E0E0E0" stroke-width="1"/>
  <line x1="77" y1="95" x2="123" y2="95" stroke="#E0E0E0" stroke-width="1"/>
  <line x1="77" y1="100" x2="123" y2="100" stroke="#E0E0E0" stroke-width="1"/>
  <line x1="77" y1="105" x2="123" y2="105" stroke="#E0E0E0" stroke-width="1"/>
  <line x1="77" y1="110" x2="123" y2="110" stroke="#E0E0E0" stroke-width="1"/>
  <line x1="77" y1="115" x2="123" y2="115" stroke="#E0E0E0" stroke-width="1"/>
  <line x1="77" y1="120" x2="123" y2="120" stroke="#E0E0E0" stroke-width="1"/>
  <line x1="77" y1="125" x2="123" y2="125" stroke="#E0E0E0" stroke-width="1"/>
  <line x1="77" y1="130" x2="123" y2="130" stroke="#E0E0E0" stroke-width="1"/>
  <line x1="77" y1="135" x2="123" y2="135" stroke="#E0E0E0" stroke-width="1"/>
  <line x1="77" y1="140" x2="123" y2="140" stroke="#E0E0E0" stroke-width="1"/>
  <line x1="77" y1="145" x2="123" y2="145" stroke="#E0E0E0" stroke-width="1"/>
  <path d="M120 145L125 150L120 150L120 145Z" fill="#E0E0E0"/> <circle cx="72" cy="90" r="2" fill="#616161"/>
  <circle cx="72" cy="100" r="2" fill="#616161"/>
  <circle cx="72" cy="110" r="2" fill="#616161"/>
  <circle cx="72" cy="120" r="2" fill="#616161"/>
  <circle cx="72" cy="130" r="2" fill="#616161"/>
  <circle cx="72" cy="140" r="2" fill="#616161"/>

  <g transform="rotate(-30 80 80)"> <rect x="50" y="70" width="50" height="15" fill="#FFC107"/> <rect x="90" y="70" width="10" height="15" fill="#FF8A65"/> <polygon points="100,70 100,85 105,77.5" fill="#795548"/> <polygon points="105,77.5 110,77.5 105,70" fill="#212121"/> </g>

  <g transform="rotate(20 120 100)"> <rect x="90" y="90" width="70" height="15" fill="#2196F3"/> <line x1="95" y1="93" x2="95" y2="102" stroke="#FFFFFF" stroke-width="1"/>
    <line x1="100" y1="93" x2="100" y2="102" stroke="#FFFFFF" stroke-width="1"/>
    <line x1="105" y1="93" x2="105" y2="102" stroke="#FFFFFF" stroke-width="1"/>
    <line x1="110" y1="93" x2="110" y2="102" stroke="#FFFFFF" stroke-width="1"/>
    <line x1="115" y1="93" x2="115" y2="102" stroke="#FFFFFF" stroke-width="1"/>
    <line x1="120" y1="93" x2="120" y2="102" stroke="#FFFFFF" stroke-width="1"/>
    <line x1="125" y1="93" x2="125" y2="102" stroke="#FFFFFF" stroke-width="1"/>
    <line x1="130" y1="93" x2="130" y2="102" stroke="#FFFFFF" stroke-width="1"/>
    <line x1="135" y1="93" x2="135" y2="102" stroke="#FFFFFF" stroke-width="1"/>
    <line x1="140" y1="93" x2="140" y2="102" stroke="#FFFFFF" stroke-width="1"/>
    <line x1="145" y1="93" x2="145" y2="102" stroke="#FFFFFF" stroke-width="1"/>
    <line x1="150" y1="93" x2="150" y1="102" stroke="#FFFFFF" stroke-width="1"/>
    <line x1="155" y1="93" x2="155" y2="102" stroke="#FFFFFF" stroke-width="1"/>
  </g>
</svg>