<svg width="200" height="200" viewBox="0 0 200 200" fill="none" xmlns="http://www.w3.org/2000/svg">
  <circle cx="100" cy="100" r="90" fill="#4CAF50"/> 

  <path d="M190 10C190 59.7056 149.706 100 100 100L10 10C10 59.7056 50.2944 100 100 100C149.706 100 190 59.7056 190 10Z" fill="rgba(0,0,0,0.1)" transform="translate(0 0) rotate(45 100 100)"/>

  <g transform="rotate(-10 100 100)">
    
    <ellipse cx="90" cy="120" rx="20" ry="10" fill="#D2B48C"/> 
    <rect x="70" y="70" width="40" height="50" fill="#D2B48C"/> 
    <ellipse cx="90" cy="70" rx="20" ry="10" fill="#D2B48C"/> 
    <rect x="75" y="70" width="30" height="50" fill="#FFFFFF"/> 
    <path d="M75 70C75 75 78 70 80 70C82 70 85 75 85 70C85 75 88 70 90 70C92 70 95 75 95 70C95 75 98 70 100 70C102 70 105 75 105 70" stroke="#CCCCCC" stroke-width="2"/>
    <path d="M75 80C75 85 78 80 80 80C82 80 85 85 85 80C85 85 88 80 90 80C92 80 95 85 95 80C95 85 98 80 100 80C102 80 105 85 105 80" stroke="#CCCCCC" stroke-width="2"/>
    <path d="M75 90C75 95 78 90 80 90C82 90 85 95 85 90C85 95 88 90 90 90C92 90 95 95 95 90C95 95 98 90 100 90C102 90 105 95 105 90" stroke="#CCCCCC" stroke-width="2"/>
    <path d="M75 100C75 105 78 100 80 100C82 100 85 105 85 100C85 105 88 100 90 100C92 100 95 105 95 100C95 105 98 100 100 100C102 100 105 105 105 100" stroke="#CCCCCC" stroke-width="2"/>
    <path d="M75 110C75 115 78 110 80 110C82 110 85 115 85 110C85 115 88 110 90 110C92 110 95 115 95 110C95 115 98 110 100 110C102 110 105 115 105 110" stroke="#CCCCCC" stroke-width="2"/>

    
    <path d="M110 135 C120 130 130 140 140 135 C150 130 160 140 150 145 C140 150 130 140 120 145 C110 150 100 140 110 135Z" fill="#F06292" transform="rotate(-15 110 135)"/>
    <path d="M100 130 C110 125 120 135 130 130 C140 125 150 135 140 140 C130 145 120 135 110 140 C100 145 90 135 100 130Z" fill="#FFF176" transform="rotate(-15 110 135)"/>
    <path d="M90 125 C100 120 110 130 120 125 C130 120 140 130 130 135 C120 140 110 130 100 135 C90 140 80 130 90 125Z" fill="#81D4FA" transform="rotate(-15 110 135)"/>

    
    <path d="M130 80 C130 70 120 60 110 60 C100 60 90 70 90 80 L90 110 C90 120 100 130 110 130 C120 130 130 120 130 110 Z" fill="#B0BEC5" stroke="#78909C" stroke-width="4"/>
    <path d="M120 90 C120 85 115 80 110 80 C105 80 100 85 100 90 C100 95 105 100 110 100 C115 100 120 95 120 90 Z" fill="#FFFFFF" stroke="#78909C" stroke-width="2"/>
  </g>
</svg>