<svg width="200" height="200" viewBox="0 0 200 200" fill="none" xmlns="http://www.w3.org/2000/svg">
  <circle cx="100" cy="100" r="90" fill="#4CAF50"/> 

  <path d="M190 10C190 59.7056 149.706 100 100 100L10 10C10 59.7056 50.2944 100 100 100C149.706 100 190 59.7056 190 10Z" fill="rgba(0,0,0,0.1)" transform="translate(0 0) rotate(45 100 100)"/>

  <rect x="70" y="50" width="60" height="100" rx="5" fill="#8BC34A"/> 
  <rect x="50" y="70" width="100" height="60" rx="5" fill="#8BC34A"/>

  <ellipse cx="120" cy="120" rx="15" ry="30" transform="rotate(-30 120 120)" fill="#64B5F6"/> 
  <ellipse cx="120" cy="120" rx="15" ry="30" transform="rotate(-30 120 120)" fill="#FFFFFF" clip-path="url(#cut-half)"/>

  <defs>
    <clipPath id="cut-half">
      <rect x="120" y="85" width="20" height="70" transform="rotate(-30 120 120)"/>
    </clipPath>
  </defs>

</svg>