<svg width="200" height="200" viewBox="0 0 200 200" fill="none" xmlns="http://www.w3.org/2000/svg">
  <circle cx="100" cy="100" r="90" fill="#4CAF50"/> 

  <path d="M190 10C190 59.7056 149.706 100 100 100L10 10C10 59.7056 50.2944 100 100 100C149.706 100 190 59.7056 190 10Z" fill="rgba(0,0,0,0.1)" transform="translate(0 0) rotate(45 100 100)"/>

  <g transform="rotate(-15 100 100)">
    <path d="M130 110C145 100 150 80 140 70C130 60 110 65 100 80C90 65 70 60 60 70C50 80 55 100 70 110C85 120 115 120 130 110Z" fill="#D2B48C"/> 

    <circle cx="100" cy="80" r="8" fill="#FFC107"/> 
    <circle cx="75" cy="85" r="8" fill="#F44336"/> 
    <circle cx="125" cy="85" r="8" fill="#2196F3"/> 
    <circle cx="90" cy="105" r="8" fill="#4CAF50"/> 

    <rect x="105" y="70" width="8" height="40" transform="rotate(30 105 70)" fill="#A9A9A9"/> 
    <rect x="105" y="65" width="8" height="5" transform="rotate(30 105 70)" fill="#795548"/> 
    <polygon points="109,65 107,60 105,65" transform="rotate(30 105 70)" fill="#795548"/> 
  </g>
</svg>